HIERARCHY
ROOT hip
{
	OFFSET 0.000000 0.000000 0.000000 
	CHANNELS 6 Xposition Yposition Zposition Xrotation Zrotation Yrotation
	JOINT abdomen
	{
		OFFSET 0.000000 3.402643 0.000000 
		CHANNELS 3 Xrotation Zrotation Yrotation
		JOINT chest
		{
			OFFSET 0.000000 8.438565 -0.680529 
			CHANNELS 3 Xrotation Zrotation Yrotation
			JOINT neck
			{
				OFFSET 0.000000 10.207942 -0.272212 
				CHANNELS 3 Xrotation Zrotation Yrotation
				JOINT head
				{
					OFFSET 0.000000 3.130431 0.000000 
					CHANNELS 3 Xrotation Zrotation Yrotation
					End Site
					{
						OFFSET 0.000000 3.130435 0.000000 
					}
				}
			}
			JOINT lCollar
			{
				OFFSET 3.470700 6.669187 -0.816635 
				CHANNELS 3 Yrotation Zrotation Xrotation
				JOINT lShldr
				{
					OFFSET 3.198488 0.000000 0.000000 
					CHANNELS 3 Zrotation Yrotation Xrotation
					JOINT lForeArm
					{
						OFFSET 10.139888 0.000000 0.000000 
						CHANNELS 3 Yrotation Zrotation Xrotation
						JOINT lHand
						{
							OFFSET 8.370511 0.000000 0.000000 
							CHANNELS 3 Zrotation Yrotation Xrotation
							End Site
							{
								OFFSET 4.083176 0.000000 0.000000 
							}
						}
					}
				}
			}
			JOINT rCollar
			{
				OFFSET -3.470700 6.669187 -0.816635 
				CHANNELS 3 Yrotation Zrotation Xrotation
				JOINT rShldr
				{
					OFFSET -3.198488 0.000000 0.000000 
					CHANNELS 3 Zrotation Yrotation Xrotation
					JOINT rForeArm
					{
						OFFSET -10.139888 0.000000 0.000000 
						CHANNELS 3 Yrotation Zrotation Xrotation
						JOINT rHand
						{
							OFFSET -8.370511 0.000000 0.000000 
							CHANNELS 3 Zrotation Yrotation Xrotation
							End Site
							{
								OFFSET -4.083176 0.000000 0.000000 
							}
						}
					}
				}
			}
		}
	}
	JOINT lThigh
	{
		OFFSET 5.308129 -1.633274 1.361059 
		CHANNELS 3 Xrotation Zrotation Yrotation
		JOINT lShin
		{
			OFFSET -2.041588 -20.007561 0.000000 
			CHANNELS 3 Xrotation Zrotation Yrotation
			JOINT lFoot
			{
				OFFSET 0.000000 -19.190928 -1.224953 
				CHANNELS 3 Xrotation Yrotation Zrotation
				End Site
				{
					OFFSET 0.000000 -2.449906 4.627600 
				}
			}
		}
	}
	JOINT rThigh
	{
		OFFSET -5.308129 -1.633274 1.361059 
		CHANNELS 3 Xrotation Zrotation Yrotation
		JOINT rShin
		{
			OFFSET 2.041588 -20.007561 0.000000 
			CHANNELS 3 Xrotation Zrotation Yrotation
			JOINT rFoot
			{
				OFFSET 0.000000 -19.190928 -1.224953 
				CHANNELS 3 Xrotation Yrotation Zrotation
				End Site
				{
					OFFSET 0.000000 -2.449906 4.627600 
				}
			}
		}
	}
}
MOTION
Frames: 13
Frame Time: 0.033333
-0.697257 49.095619 0.398851 -0.029297 0.312500 -0.019691 0.000000 0.000000 0.000000 -2.978537 -0.214554 0.011164 5.527334 -0.113386 -0.083461 5.664062 -0.039011 -0.037059 -0.943127 9.639646 -2.082459 -8.005624 0.264156 -10.840258 0.079817 -6.231317 9.411981 0.140954 -5.318295 -3.379362 -0.222759 -9.536312 -2.185732 3.555533 -5.841391 -5.043921 -0.212789 5.796279 11.062003 0.699627 6.884036 -3.291832 2.673162 7.993914 7.763093 8.805254 -2.179071 9.526432 -9.002918 0.635558 -8.074560 2.450921 -10.117200 -8.268557 9.312783 3.393212 -11.327535 -8.658019 -0.649448 8.544121 
-0.690838 49.094116 0.397378 -0.039063 0.322266 -0.039282 0.000000 0.000000 0.000000 -2.959007 -0.224310 0.040891 5.507853 -0.122024 -0.082974 5.732421 -0.039013 -0.066403 -0.932730 9.687555 -2.068203 -8.075488 0.272921 -10.931682 0.082946 -6.165338 9.527660 0.094821 -5.203634 -3.376082 -0.190003 -9.508485 -2.176197 3.456277 -5.841973 -4.969563 -0.210651 5.822643 10.955270 0.614866 6.820396 -3.297245 2.656052 7.988114 7.762233 8.854966 -2.187700 9.562057 -9.021790 0.631361 -8.076968 2.420446 -10.113870 -8.248003 9.363307 3.346792 -11.346848 -8.658723 -0.667275 8.568119 
-0.685932 49.091724 0.395869 -0.029297 0.341797 -0.068534 0.000000 0.000000 0.000000 -2.968771 -0.214555 0.069721 5.527420 -0.148476 -0.076133 5.712884 -0.126792 -0.061957 -0.898802 9.568775 -2.070978 -7.937810 0.284066 -10.856400 0.092174 -6.213689 9.539334 0.211066 -5.177173 -3.383207 -0.151296 -9.520000 -2.174420 3.405170 -5.842584 -4.849886 -0.198377 5.868370 10.848150 0.455717 6.850219 -3.316609 2.634652 7.964409 7.740499 8.868919 -2.175331 9.571477 -9.031878 0.631631 -8.077085 2.371375 -10.122916 -8.237904 9.427503 3.314930 -11.324759 -8.676820 -0.675668 8.596801 
-0.682029 49.093109 0.398373 -0.029297 0.312500 -0.117347 0.000000 0.000000 0.000000 -2.949236 -0.195054 0.088174 5.507858 -0.172829 -0.013595 5.771477 -0.126798 -0.042556 -0.827737 9.448341 -2.064250 -7.790812 0.285330 -10.809857 0.094643 -6.242238 9.705832 0.348788 -5.345080 -3.391815 -0.102345 -9.541538 -2.159594 3.463333 -5.852319 -4.813878 -0.199552 5.864019 10.916360 0.401488 6.935085 -3.319594 2.652576 7.970024 7.741232 8.881944 -2.167103 9.590920 -9.055017 0.647862 -8.080585 2.401870 -10.126368 -8.258467 9.347735 3.352764 -11.269023 -8.656704 -0.655522 8.562785 
-0.678885 49.096630 0.398927 0.000000 0.273438 -0.136719 0.000000 0.000000 0.000000 -2.949229 -0.146290 0.134490 5.517548 -0.188768 0.078378 5.761709 -0.146304 -0.012269 -0.748810 9.493902 -2.069913 -7.897581 0.255385 -10.795660 0.085184 -6.240844 9.724425 0.395545 -5.469476 -3.395111 -0.064695 -9.533584 -2.159278 3.472706 -5.930563 -4.775627 -0.203353 5.831436 11.120542 0.433166 7.064116 -3.308607 2.643457 7.992936 7.733368 8.872113 -2.168727 9.610909 -9.057609 0.646901 -8.059590 2.459630 -10.113914 -8.298231 9.185637 3.433509 -11.187400 -8.571184 -0.647231 8.510934 
-0.675234 49.100906 0.396347 0.019531 0.273437 -0.185407 0.000000 0.000000 0.000000 -2.939463 -0.146292 0.183293 5.546796 -0.201074 0.154179 5.693344 -0.185308 0.019186 -0.767519 9.572183 -2.056744 -8.092625 0.342085 -10.767063 0.088653 -6.182760 9.870601 0.386344 -5.479807 -3.394520 -0.052471 -9.505158 -2.156171 3.432758 -5.921072 -4.734527 -0.187707 5.862179 10.788618 0.530087 6.923049 -3.302041 2.682637 7.981470 7.762000 8.757696 -2.187687 9.675117 -8.997102 0.635205 -8.042237 2.477113 -10.138792 -8.330790 9.110023 3.483916 -11.140804 -8.537601 -0.649061 8.466299 
-0.672843 49.100906 0.392962 0.009766 0.283203 -0.253810 0.000000 0.000000 0.000000 -2.910167 -0.156049 0.222777 5.556709 -0.155418 0.219555 5.683576 -0.204812 0.069040 -0.819186 9.641574 -2.020995 -8.230061 0.507199 -10.755425 0.091677 -6.098477 9.966363 0.396131 -5.479224 -3.395112 -0.024726 -9.437966 -2.119354 3.402551 -5.892017 -4.693851 -0.184000 5.894122 10.593174 0.562966 6.866276 -3.300246 2.712493 7.963741 7.760387 8.735893 -2.167299 9.755603 -8.987724 0.663583 -8.082502 2.449290 -10.162302 -8.351851 9.138263 3.512633 -11.078334 -8.529931 -0.646761 8.445717 
-0.666552 49.100403 0.384253 0.087892 0.283203 -0.321783 0.000000 0.000000 0.000000 -2.939464 -0.156044 0.252153 5.517587 -0.187172 0.254580 5.722652 -0.097533 0.034205 -0.777106 9.581733 -2.052805 -8.249971 0.585231 -10.747084 0.089714 -6.105281 9.859174 0.427251 -5.506720 -3.396886 0.027596 -9.489254 -2.154522 3.461477 -5.921130 -4.696976 -0.188899 5.866971 10.866796 0.609091 6.917884 -3.297239 2.635057 7.936827 7.688607 8.744694 -2.147295 9.844095 -9.003829 0.644296 -8.081318 2.313987 -10.205498 -8.342622 9.179245 3.561307 -11.013841 -8.530664 -0.644037 8.436257 
-0.661014 49.102421 0.380250 0.126955 0.302734 -0.360606 0.000000 0.000000 0.000000 -3.007836 -0.224300 0.412176 5.655601 -0.046649 0.255591 5.595701 -0.068265 -0.055007 -0.997743 9.942070 -2.078244 -8.571613 0.759114 -10.666847 0.097196 -6.113476 9.732328 0.173811 -5.375043 -3.381147 0.175980 -9.535603 -2.206996 3.665150 -6.223904 -4.523159 -0.193682 5.812378 11.109511 0.635614 6.968345 -3.295430 2.613303 7.902616 7.675843 8.671071 -2.164178 9.896238 -8.962825 0.630531 -8.065289 2.274080 -10.231674 -8.344150 9.168813 3.533146 -10.987151 -8.525412 -0.627011 8.444040 
-0.659378 49.102165 0.379937 0.107423 0.292968 -0.370495 0.000000 0.000000 0.000000 -2.949244 -0.234065 0.412449 5.607181 0.009035 0.245023 5.673814 -0.175552 -0.010547 -0.976401 9.979011 -2.024342 -8.640171 0.768293 -10.680153 0.084423 -6.104912 9.555642 -0.036931 -5.299477 -3.368652 0.181723 -9.418004 -2.149773 3.548090 -6.204609 -4.556125 -0.190856 5.822951 10.943856 0.729036 6.885750 -3.290027 2.643374 7.914110 7.696591 8.690277 -2.164063 9.865832 -8.986432 0.638338 -8.051370 2.302086 -10.217971 -8.333868 9.153597 3.519258 -10.988685 -8.525060 -0.620746 8.436292 
-0.660510 49.101540 0.375104 0.175783 0.253905 -0.340975 0.000000 0.000000 0.000000 -2.900400 -0.146297 0.271084 5.390651 -0.171487 0.247680 5.898435 -0.078038 0.013453 -0.703940 9.607382 -2.013802 -8.387875 0.622931 -10.812862 0.084916 -6.084771 9.564969 0.017814 -5.394068 -3.371638 0.038457 -9.382010 -2.116385 3.346885 -5.901281 -4.866632 -0.188492 5.822510 10.797466 0.873176 6.776749 -3.280437 2.517612 7.974294 7.711495 8.799908 -2.165074 9.820071 -9.034285 0.640419 -8.072940 2.253021 -10.167164 -8.318413 9.098024 3.550874 -11.000544 -8.482860 -0.647717 8.422748 
-0.659124 49.100403 0.373005 0.205080 0.234373 -0.311621 0.000000 0.000000 0.000000 -2.949229 -0.146290 0.290740 5.478758 -0.119704 0.255759 5.859371 -0.097544 0.014441 -0.798271 9.758149 -2.049725 -8.533718 0.641567 -10.781388 0.084314 -6.068334 9.515832 0.049502 -5.431325 -3.374348 0.074591 -9.491364 -2.160784 3.502916 -5.959615 -4.816301 -0.190509 5.815053 10.914398 0.933137 6.760667 -3.276816 2.421287 7.996895 7.703261 8.901563 -2.167174 9.843484 -9.059532 0.669924 -8.081198 2.234587 -10.142216 -8.286034 9.086415 3.530013 -11.022079 -8.479723 -0.642329 8.435812 
-0.656735 49.103558 0.373005 0.205081 0.283201 -0.321204 0.000000 0.000000 0.000000 -2.949233 -0.175548 0.282482 5.507871 -0.184737 0.246825 5.898433 -0.107302 0.014835 -0.771817 9.659658 -2.057012 -8.425249 0.603606 -10.726871 0.085489 -6.092063 9.604156 0.222300 -5.528693 -3.384455 0.060176 -9.607983 -2.160317 3.641093 -5.919879 -4.881755 -0.203638 5.793633 11.100148 0.842620 6.794537 -3.282245 2.526660 7.924775 7.657809 8.708521 -2.168164 9.845076 -8.996808 0.634397 -8.042689 2.234984 -10.181623 -8.289453 9.073976 3.508592 -11.014378 -8.488681 -0.638898 8.437691 
